<svg xmlns="http://www.w3.org/2000/svg" xmlns:xlink="http://www.w3.org/1999/xlink" width="1920" zoomAndPan="magnify" viewBox="0 0 1440 809.999993" height="1080" preserveAspectRatio="xMidYMid meet" version="1.0"><defs><g/><clipPath id="7a0482a763"><path d="M 531.238281 377.261719 L 540.988281 377.261719 L 540.988281 399.761719 L 531.238281 399.761719 Z M 531.238281 377.261719 " clip-rule="nonzero"/></clipPath></defs><rect x="-144" width="1728" fill="#ffffff" y="-80.999999" height="971.999992" fill-opacity="1"/><rect x="-144" width="1728" fill="#ffffff" y="-80.999999" height="971.999992" fill-opacity="1"/><rect x="-144" width="1728" fill="#ffffff" y="-80.999999" height="971.999992" fill-opacity="1"/><g clip-path="url(#7a0482a763)"><path fill="#000000" d="M 540.988281 386.019531 L 536.421875 386.019531 L 540.8125 377.34375 L 535.808594 377.34375 L 531.238281 388.597656 L 535.457031 388.597656 L 532.292969 399.675781 Z M 540.988281 386.019531 " fill-opacity="1" fill-rule="nonzero"/></g><path fill="#1d1d1b" d="M 821.367188 425.910156 C 821.367188 425.910156 812.804688 459.371094 795.128906 478.527344 C 795.128906 478.527344 748.953125 501.308594 681.542969 502.621094 C 681.542969 502.621094 486.035156 501.984375 431.347656 470.703125 C 431.347656 470.703125 409.195312 460.109375 408.964844 429.960938 L 408.800781 392.269531 C 408.800781 392.269531 424.527344 415.808594 424.9375 418.316406 C 425.347656 420.824219 431.070312 446.824219 431.070312 446.824219 C 431.070312 446.824219 518.386719 479.953125 663.703125 472.789062 L 713.257812 445.839844 L 821.382812 425.910156 Z M 821.367188 425.910156 " fill-opacity="1" fill-rule="nonzero"/><path fill="#1d1d1b" d="M 401.734375 450.429688 L 401.683594 459.648438 C 401.683594 459.648438 420.789062 488.925781 531.800781 501.820312 C 642.8125 514.695312 806.261719 511.25 849.914062 490.550781 C 849.914062 490.550781 860.375 337.339844 886.382812 328.253906 C 886.382812 328.253906 898.140625 323.28125 899.074219 381.921875 C 899.566406 412.773438 898.074219 446.511719 894.84375 472.96875 C 891.925781 496.765625 887.59375 514.660156 882.019531 519.1875 C 870.246094 528.75 870.214844 533.785156 847.226562 526.535156 C 847.226562 526.535156 831.300781 527.699219 825.007812 531.867188 C 818.710938 536.035156 634.070312 535.871094 634.070312 535.871094 C 634.070312 535.871094 618.578125 536.625 596.898438 518.910156 L 476.410156 501.507812 C 476.410156 501.507812 454.175781 508.609375 444.992188 505.097656 C 436.300781 501.785156 397.800781 484.746094 390.339844 468.785156 C 390.339844 468.785156 395.042969 449.972656 401.734375 450.414062 Z M 401.734375 450.429688 " fill-opacity="1" fill-rule="nonzero"/><path fill="#1d1d1b" d="M 954.136719 417.824219 L 893.792969 474.082031 L 895.320312 454.351562 L 901.84375 449.382812 L 903.140625 443.3125 L 960.992188 390.023438 C 960.992188 390.023438 968.15625 304.421875 975.683594 306.765625 C 975.683594 306.765625 982.765625 314.015625 978.980469 355.085938 C 978.980469 355.085938 977.683594 402.257812 971.566406 411.015625 C 965.453125 419.777344 970.894531 420.023438 954.152344 417.839844 Z M 954.136719 417.824219 " fill-opacity="1" fill-rule="nonzero"/><path fill="#1d1d1b" d="M 698.597656 368.144531 C 698.597656 368.144531 718.09375 374.949219 723.964844 374.980469 C 729.835938 375.015625 827.890625 356.003906 827.890625 356.003906 C 827.890625 356.003906 837.679688 351.871094 831.761719 363.007812 C 825.84375 374.144531 811.214844 396.125 806.179688 397.484375 C 801.148438 398.847656 768.648438 406.769531 765.859375 412.902344 C 763.070312 419.039062 824.875 397.027344 824.070312 392.566406 C 824.070312 392.566406 853.601562 351.96875 858.703125 336.078125 C 858.703125 336.078125 703.628906 367.058594 698.597656 368.160156 Z M 698.597656 368.144531 " fill-opacity="1" fill-rule="nonzero"/><path fill="#1d1d1b" d="M 885.777344 284.277344 C 885.777344 284.277344 894.203125 222.902344 898.121094 220.6875 C 902.042969 218.472656 894.007812 207.828125 894.007812 207.828125 C 894.007812 207.828125 906.289062 208.453125 941.199219 254.425781 L 915.539062 252.328125 C 915.539062 252.328125 908.550781 253.132812 908.503906 264.300781 C 908.453125 275.472656 909.832031 275.75 909.832031 275.75 L 938.148438 274.503906 C 938.148438 274.503906 942.199219 284.296875 895.859375 282.933594 C 895.859375 282.933594 890.25 283.738281 890.234375 288.214844 C 890.234375 288.214844 877.804688 287.96875 878.804688 286.476562 C 879.332031 285.691406 885.792969 284.28125 885.792969 284.28125 Z M 885.777344 284.277344 " fill-opacity="1" fill-rule="nonzero"/><path fill="#1d1d1b" d="M 420.410156 325.628906 C 420.410156 325.628906 448.335938 353.625 449.976562 355.628906 C 451.125 357.023438 436.367188 368.125 436.085938 369.371094 C 435.464844 372.226562 435.726562 358.480469 430.316406 354.265625 C 424.90625 350.050781 417.425781 336.191406 417.445312 334.519531 C 417.460938 332.84375 420.429688 325.628906 420.429688 325.628906 Z M 420.410156 325.628906 " fill-opacity="1" fill-rule="nonzero"/><path fill="#1d1d1b" d="M 574.875 272.257812 L 657.816406 216.882812 C 657.816406 216.882812 678.625 204.859375 742.855469 202.515625 L 742.183594 203.367188 L 725.40625 209.976562 C 725.40625 209.976562 789.585938 211.4375 793.507812 209.78125 C 797.425781 208.125 825.941406 200.316406 825.941406 200.316406 C 825.941406 200.316406 882.445312 201.875 885.921875 205.105469 C 889.398438 208.339844 864.394531 285.507812 864.394531 285.507812 C 864.394531 285.507812 592.191406 271.207031 574.894531 272.222656 Z M 574.875 272.257812 " fill-opacity="1" fill-rule="nonzero"/><path stroke-linecap="butt" transform="matrix(1.639761, 0, 0, 1.640198, 310.940938, 101.462849)" fill="none" stroke-linejoin="miter" d="M 54.869665 212.730428 C 54.869665 212.730428 55.998831 190.719934 56.039329 182.210575 C 56.079827 173.698835 59.279131 165.889658 59.279131 165.889658 L 59.379184 147.511062 L 64.939255 142.090603 L 66.759262 136.670143 C 83.730106 105.928804 121.469033 107.160077 121.469033 107.160077 C 131.219408 102.739878 160.811186 103.640112 160.811186 103.640112 L 211.540289 70.369543 C 211.540289 70.369543 218.18903 65.680226 242.599507 63.239114 C 247.780808 62.719931 263.760654 61.591066 263.760654 61.591066 L 317.650947 60.40028 C 317.650947 60.40028 347.869246 60.081149 355.580451 64.849057 C 355.580451 64.849057 365.480904 67.371143 384.359896 93.258837 C 384.359896 93.258837 389.969994 94.440097 390.729919 95.849988 C 391.489843 97.259879 392.75003 100.710778 393.509954 100.970369 C 394.269879 101.229961 409.280166 100.798896 408.079534 139.990055 C 406.878901 179.178833 404.18939 186.23067 403.529518 187.480995 C 402.869647 188.728939 401.89056 197.11922 392.249767 192.889547 L 356.080714 226.510208 C 356.080714 226.510208 354.670447 272.979453 327.039226 259.180621 C 327.039226 259.180621 315.54984 260.140395 313.489231 262.429086 C 311.431004 264.720159 195.660496 264.801133 195.660496 264.801133 C 195.660496 264.801133 184.290221 263.779438 174.380238 254.52941 C 174.380238 254.52941 103.469075 244.600633 100.901056 243.919504 C 98.330654 243.240755 88.289651 248.370663 81.740963 246.110551 C 75.189893 243.850438 51.179626 232.409363 48.409119 223.96907 C 48.409119 223.96907 51.210595 211.961181 54.869665 212.739955 Z M 54.869665 212.730428 " stroke="#1d1d1b" stroke-width="1" stroke-opacity="1" stroke-miterlimit="10"/><path fill="#1d1d1b" d="M 573.730469 271.453125 C 573.730469 271.453125 574.089844 268.925781 573.679688 268.371094 C 573.269531 267.8125 560.691406 269.273438 562.003906 259.085938 C 563.316406 248.898438 586.058594 249.867188 586.058594 249.867188 C 586.058594 249.867188 588.714844 251.113281 588.945312 261.121094 C 589.175781 271.125 573.746094 271.46875 573.746094 271.46875 Z M 573.730469 271.453125 " fill-opacity="1" fill-rule="nonzero"/><path stroke-linecap="butt" transform="matrix(1.639761, 0, 0, 1.640198, 310.940938, 101.462849)" fill="none" stroke-linejoin="miter" d="M 384.359896 93.258837 C 384.359896 93.258837 374.750072 92.039472 368.711177 91.979933 C 361.550262 91.920393 365.230772 106.259842 365.230772 106.259842 L 382.499393 105.500121 C 395.889779 105.700173 390.729919 95.840462 390.729919 95.840462 " stroke="#1d1d1b" stroke-width="1" stroke-opacity="1" stroke-miterlimit="10"/><path fill="#1d1d1b" d="M 462.488281 345.539062 L 656.996094 357.382812 L 721.242188 374.6875 L 723.964844 374.980469 L 657.324219 355.808594 Z M 462.488281 345.539062 " fill-opacity="1" fill-rule="nonzero"/><path fill="#1d1d1b" d="M 885.90625 504.492188 L 851.472656 527.832031 C 851.472656 527.832031 854.71875 530.160156 862.308594 530.75 C 869.902344 531.34375 880.152344 523.027344 880.152344 523.027344 Z M 885.90625 504.492188 " fill-opacity="1" fill-rule="nonzero"/><path fill="#1d1d1b" d="M 971.355469 412.558594 L 968.289062 417.644531 L 961.449219 419.757812 L 956.285156 418.429688 L 961.089844 413.511719 Z M 971.355469 412.558594 " fill-opacity="1" fill-rule="nonzero"/><path fill="#1d1d1b" d="M 668.867188 394.222656 C 667.210938 389.742188 634.628906 377.277344 634.628906 377.277344 L 448.535156 364.828125 L 437.875 374.261719 L 449.289062 380.183594 C 450.960938 381.871094 500.039062 388.269531 500.039062 388.269531 L 534.800781 411.625 C 561.957031 397.535156 568.382812 396.171875 568.382812 396.171875 C 568.382812 396.171875 670.523438 398.683594 668.867188 394.207031 Z M 548.789062 394.402344 C 548.789062 394.402344 535.242188 412.625 522.617188 393.386719 L 522.617188 374.261719 L 549.625 376.164062 Z M 548.789062 394.402344 " fill-opacity="1" fill-rule="nonzero"/><path fill="#1d1d1b" d="M 894.007812 207.828125 C 894.007812 207.828125 888.167969 264.105469 878.789062 286.476562 L 890.21875 288.214844 L 926.851562 281.472656 L 900.386719 275.765625 L 902.8125 215.898438 L 893.992188 207.847656 Z M 894.007812 207.828125 " fill-opacity="1" fill-rule="nonzero"/><g fill="#000000" fill-opacity="1"><g transform="translate(395.194827, 605.571607)"><g><path d="M 17.234375 -10.8125 L 7.359375 -10.8125 L 7.359375 -4.125 L 18.9375 -4.125 L 18.9375 0 L 2.234375 0 L 2.234375 -24.9375 L 18.90625 -24.9375 L 18.90625 -20.78125 L 7.359375 -20.78125 L 7.359375 -14.828125 L 17.234375 -14.828125 Z M 17.234375 -10.8125 "/></g></g></g><g fill="#000000" fill-opacity="1"><g transform="translate(427.758568, 605.571607)"><g><path d="M 7.359375 -4.125 L 18.28125 -4.125 L 18.28125 0 L 2.234375 0 L 2.234375 -24.9375 L 7.359375 -24.9375 Z M 7.359375 -4.125 "/></g></g></g><g fill="#000000" fill-opacity="1"><g transform="translate(459.586062, 605.571607)"><g><path d="M 17.234375 -10.8125 L 7.359375 -10.8125 L 7.359375 -4.125 L 18.9375 -4.125 L 18.9375 0 L 2.234375 0 L 2.234375 -24.9375 L 18.90625 -24.9375 L 18.90625 -20.78125 L 7.359375 -20.78125 L 7.359375 -14.828125 L 17.234375 -14.828125 Z M 17.234375 -10.8125 "/></g></g></g><g fill="#000000" fill-opacity="1"><g transform="translate(492.149808, 605.571607)"><g><path d="M 10.03125 -10 L 7.359375 -7.125 L 7.359375 0 L 2.234375 0 L 2.234375 -24.9375 L 7.359375 -24.9375 L 7.359375 -13.640625 L 9.625 -16.734375 L 15.984375 -24.9375 L 22.296875 -24.9375 L 13.453125 -13.859375 L 22.5625 0 L 16.4375 0 Z M 10.03125 -10 "/></g></g></g><g fill="#000000" fill-opacity="1"><g transform="translate(527.247605, 605.571607)"><g><path d="M 21 -20.78125 L 13.359375 -20.78125 L 13.359375 0 L 8.21875 0 L 8.21875 -20.78125 L 0.6875 -20.78125 L 0.6875 -24.9375 L 21 -24.9375 Z M 21 -20.78125 "/></g></g></g><g fill="#000000" fill-opacity="1"><g transform="translate(561.780375, 605.571607)"><g><path d="M 11.453125 -9.125 L 7.359375 -9.125 L 7.359375 0 L 2.234375 0 L 2.234375 -24.9375 L 11.5 -24.9375 C 14.4375 -24.9375 16.703125 -24.28125 18.296875 -22.96875 C 19.898438 -21.65625 20.703125 -19.800781 20.703125 -17.40625 C 20.703125 -15.695312 20.332031 -14.273438 19.59375 -13.140625 C 18.863281 -12.003906 17.75 -11.101562 16.25 -10.4375 L 21.65625 -0.234375 L 21.65625 0 L 16.140625 0 Z M 7.359375 -13.296875 L 11.515625 -13.296875 C 12.804688 -13.296875 13.800781 -13.625 14.5 -14.28125 C 15.207031 -14.9375 15.5625 -15.835938 15.5625 -16.984375 C 15.5625 -18.160156 15.226562 -19.085938 14.5625 -19.765625 C 13.894531 -20.441406 12.875 -20.78125 11.5 -20.78125 L 7.359375 -20.78125 Z M 7.359375 -13.296875 "/></g></g></g><g fill="#000000" fill-opacity="1"><g transform="translate(596.998026, 605.571607)"><g><path d="M 22.71875 -11.90625 C 22.71875 -9.445312 22.28125 -7.289062 21.40625 -5.4375 C 20.539062 -3.59375 19.300781 -2.164062 17.6875 -1.15625 C 16.070312 -0.15625 14.21875 0.34375 12.125 0.34375 C 10.0625 0.34375 8.21875 -0.148438 6.59375 -1.140625 C 4.96875 -2.140625 3.707031 -3.5625 2.8125 -5.40625 C 1.925781 -7.25 1.476562 -9.367188 1.46875 -11.765625 L 1.46875 -13 C 1.46875 -15.457031 1.910156 -17.617188 2.796875 -19.484375 C 3.679688 -21.347656 4.929688 -22.78125 6.546875 -23.78125 C 8.160156 -24.78125 10.003906 -25.28125 12.078125 -25.28125 C 14.160156 -25.28125 16.007812 -24.78125 17.625 -23.78125 C 19.25 -22.78125 20.503906 -21.347656 21.390625 -19.484375 C 22.273438 -17.617188 22.71875 -15.460938 22.71875 -13.015625 Z M 17.5 -13.03125 C 17.5 -15.644531 17.03125 -17.628906 16.09375 -18.984375 C 15.164062 -20.347656 13.832031 -21.03125 12.09375 -21.03125 C 10.363281 -21.03125 9.03125 -20.359375 8.09375 -19.015625 C 7.164062 -17.679688 6.695312 -15.71875 6.6875 -13.125 L 6.6875 -11.90625 C 6.6875 -9.351562 7.148438 -7.375 8.078125 -5.96875 C 9.015625 -4.570312 10.363281 -3.875 12.125 -3.875 C 13.851562 -3.875 15.175781 -4.550781 16.09375 -5.90625 C 17.019531 -7.257812 17.488281 -9.226562 17.5 -11.8125 Z M 17.5 -13.03125 "/></g></g></g><g fill="#000000" fill-opacity="1"><g transform="translate(634.047734, 605.571607)"><g><path d="M 11.53125 -8.6875 L 1.890625 -8.6875 L 1.890625 -12.671875 L 11.53125 -12.671875 Z M 11.53125 -8.6875 "/></g></g></g><g fill="#000000" fill-opacity="1"><g transform="translate(660.481783, 605.571607)"><g><path d="M 16.3125 -5.140625 L 7.296875 -5.140625 L 5.578125 0 L 0.125 0 L 9.40625 -24.9375 L 14.171875 -24.9375 L 23.5 0 L 18.03125 0 Z M 8.6875 -9.296875 L 14.921875 -9.296875 L 11.78125 -18.640625 Z M 8.6875 -9.296875 "/></g></g></g><g fill="#000000" fill-opacity="1"><g transform="translate(696.915098, 605.571607)"><g><path d="M 21.109375 -24.9375 L 21.109375 -8.515625 C 21.109375 -5.785156 20.253906 -3.625 18.546875 -2.03125 C 16.835938 -0.445312 14.503906 0.34375 11.546875 0.34375 C 8.628906 0.34375 6.3125 -0.425781 4.59375 -1.96875 C 2.882812 -3.507812 2.015625 -5.628906 1.984375 -8.328125 L 1.984375 -24.9375 L 7.125 -24.9375 L 7.125 -8.484375 C 7.125 -6.847656 7.515625 -5.65625 8.296875 -4.90625 C 9.078125 -4.15625 10.160156 -3.78125 11.546875 -3.78125 C 14.429688 -3.78125 15.898438 -5.300781 15.953125 -8.34375 L 15.953125 -24.9375 Z M 21.109375 -24.9375 "/></g></g></g><g fill="#000000" fill-opacity="1"><g transform="translate(732.834753, 605.571607)"><g><path d="M 21 -20.78125 L 13.359375 -20.78125 L 13.359375 0 L 8.21875 0 L 8.21875 -20.78125 L 0.6875 -20.78125 L 0.6875 -24.9375 L 21 -24.9375 Z M 21 -20.78125 "/></g></g></g><g fill="#000000" fill-opacity="1"><g transform="translate(767.367544, 605.571607)"><g><path d="M 7.6875 0 L 2.546875 0 L 2.546875 -24.9375 L 7.6875 -24.9375 Z M 7.6875 0 "/></g></g></g><g fill="#000000" fill-opacity="1"><g transform="translate(790.428572, 605.571607)"><g><path d="M 21.796875 -8.3125 C 21.609375 -5.625 20.617188 -3.507812 18.828125 -1.96875 C 17.046875 -0.425781 14.691406 0.34375 11.765625 0.34375 C 8.566406 0.34375 6.050781 -0.726562 4.21875 -2.875 C 2.382812 -5.03125 1.46875 -7.988281 1.46875 -11.75 L 1.46875 -13.28125 C 1.46875 -15.675781 1.890625 -17.785156 2.734375 -19.609375 C 3.585938 -21.441406 4.796875 -22.84375 6.359375 -23.8125 C 7.929688 -24.789062 9.753906 -25.28125 11.828125 -25.28125 C 14.710938 -25.28125 17.03125 -24.507812 18.78125 -22.96875 C 20.539062 -21.425781 21.5625 -19.265625 21.84375 -16.484375 L 16.703125 -16.484375 C 16.578125 -18.085938 16.128906 -19.25 15.359375 -19.96875 C 14.585938 -20.695312 13.410156 -21.0625 11.828125 -21.0625 C 10.117188 -21.0625 8.835938 -20.445312 7.984375 -19.21875 C 7.140625 -18 6.707031 -16.097656 6.6875 -13.515625 L 6.6875 -11.625 C 6.6875 -8.9375 7.09375 -6.96875 7.90625 -5.71875 C 8.71875 -4.476562 10.003906 -3.859375 11.765625 -3.859375 C 13.347656 -3.859375 14.53125 -4.21875 15.3125 -4.9375 C 16.101562 -5.664062 16.554688 -6.789062 16.671875 -8.3125 Z M 21.796875 -8.3125 "/></g></g></g><g fill="#000000" fill-opacity="1"><g transform="translate(826.211251, 605.571607)"><g><path d="M 10.03125 -10 L 7.359375 -7.125 L 7.359375 0 L 2.234375 0 L 2.234375 -24.9375 L 7.359375 -24.9375 L 7.359375 -13.640625 L 9.625 -16.734375 L 15.984375 -24.9375 L 22.296875 -24.9375 L 13.453125 -13.859375 L 22.5625 0 L 16.4375 0 Z M 10.03125 -10 "/></g></g></g><g fill="#000000" fill-opacity="1"><g transform="translate(861.309048, 605.571607)"><g><path d="M 16.3125 -5.140625 L 7.296875 -5.140625 L 5.578125 0 L 0.125 0 L 9.40625 -24.9375 L 14.171875 -24.9375 L 23.5 0 L 18.03125 0 Z M 8.6875 -9.296875 L 14.921875 -9.296875 L 11.78125 -18.640625 Z M 8.6875 -9.296875 "/></g></g></g><g fill="#000000" fill-opacity="1"><g transform="translate(897.742363, 605.571607)"><g><path d="M 2.15625 -2.4375 C 2.15625 -3.21875 2.421875 -3.851562 2.953125 -4.34375 C 3.484375 -4.84375 4.148438 -5.09375 4.953125 -5.09375 C 5.765625 -5.09375 6.4375 -4.84375 6.96875 -4.34375 C 7.5 -3.851562 7.765625 -3.21875 7.765625 -2.4375 C 7.765625 -1.65625 7.5 -1.019531 6.96875 -0.53125 C 6.445312 -0.0507812 5.773438 0.1875 4.953125 0.1875 C 4.140625 0.1875 3.46875 -0.0507812 2.9375 -0.53125 C 2.414062 -1.019531 2.15625 -1.65625 2.15625 -2.4375 Z M 2.15625 -2.4375 "/></g></g></g><g fill="#000000" fill-opacity="1"><g transform="translate(920.769148, 605.571607)"><g><path d="M 21.796875 -8.3125 C 21.609375 -5.625 20.617188 -3.507812 18.828125 -1.96875 C 17.046875 -0.425781 14.691406 0.34375 11.765625 0.34375 C 8.566406 0.34375 6.050781 -0.726562 4.21875 -2.875 C 2.382812 -5.03125 1.46875 -7.988281 1.46875 -11.75 L 1.46875 -13.28125 C 1.46875 -15.675781 1.890625 -17.785156 2.734375 -19.609375 C 3.585938 -21.441406 4.796875 -22.84375 6.359375 -23.8125 C 7.929688 -24.789062 9.753906 -25.28125 11.828125 -25.28125 C 14.710938 -25.28125 17.03125 -24.507812 18.78125 -22.96875 C 20.539062 -21.425781 21.5625 -19.265625 21.84375 -16.484375 L 16.703125 -16.484375 C 16.578125 -18.085938 16.128906 -19.25 15.359375 -19.96875 C 14.585938 -20.695312 13.410156 -21.0625 11.828125 -21.0625 C 10.117188 -21.0625 8.835938 -20.445312 7.984375 -19.21875 C 7.140625 -18 6.707031 -16.097656 6.6875 -13.515625 L 6.6875 -11.625 C 6.6875 -8.9375 7.09375 -6.96875 7.90625 -5.71875 C 8.71875 -4.476562 10.003906 -3.859375 11.765625 -3.859375 C 13.347656 -3.859375 14.53125 -4.21875 15.3125 -4.9375 C 16.101562 -5.664062 16.554688 -6.789062 16.671875 -8.3125 Z M 21.796875 -8.3125 "/></g></g></g><g fill="#000000" fill-opacity="1"><g transform="translate(956.551827, 605.571607)"><g><path d="M 7.671875 -4.125 L 20.25 -4.125 L 20.25 0 L 1.25 0 L 1.25 -3.015625 L 13.578125 -20.78125 L 1.265625 -20.78125 L 1.265625 -24.9375 L 19.96875 -24.9375 L 19.96875 -22 Z M 7.671875 -4.125 "/></g></g></g></svg>